<?xml version="1.0" standalone="no"?>
<!DOCTYPE svg PUBLIC "-//W3C//DTD SVG 20010904//EN"
 "http://www.w3.org/TR/2001/REC-SVG-20010904/DTD/svg10.dtd">
<svg version="1.0" xmlns="http://www.w3.org/2000/svg"
 width="1280.000000pt" height="1030.000000pt" viewBox="0 0 1280.000000 1030.000000"
 preserveAspectRatio="xMidYMid meet">
<g transform="translate(0.000000,1030.000000) scale(0.100000,-0.100000)"
fill="#fff" stroke="none">
<path d="M84 10286 c-66 -29 -98 -107 -72 -174 19 -48 6243 -10028 6277
-10065 54 -58 148 -58 202 0 23 25 6227 9924 6287 10031 52 92 -1 195 -106
209 -52 7 -73 -6 -184 -111 -51 -48 -1442 -1436 -3091 -3084 l-2998 -2996
-3092 3092 c-1779 1778 -3104 3096 -3120 3102 -37 13 -65 12 -103 -4z"/>
</g>
</svg>
